<svg width="28" height="28" viewBox="0 0 28 28" fill="none" xmlns="http://www.w3.org/2000/svg">
<path d="M19.721 22.75C19.4224 22.75 19.1719 22.6489 18.9697 22.4467C18.7677 22.2446 18.6667 21.9942 18.6667 21.6953V16.9167C18.6667 16.618 18.7677 16.3676 18.9697 16.1653C19.1719 15.9633 19.4224 15.8623 19.721 15.8623H21.6953C21.9942 15.8623 22.2446 15.9633 22.4467 16.1653C22.6489 16.3676 22.75 16.618 22.75 16.9167V21.6953C22.75 21.9942 22.6489 22.2446 22.4467 22.4467C22.2446 22.6489 21.9942 22.75 21.6953 22.75H19.721ZM13.0127 22.75C12.714 22.75 12.4636 22.6489 12.2614 22.4467C12.0593 22.2446 11.9583 21.9942 11.9583 21.6953V6.30467C11.9583 6.0058 12.0593 5.75536 12.2614 5.55333C12.4636 5.35111 12.714 5.25 13.0127 5.25H14.9873C15.286 5.25 15.5364 5.35111 15.7386 5.55333C15.9407 5.75536 16.0417 6.0058 16.0417 6.30467V21.6953C16.0417 21.9942 15.9407 22.2446 15.7386 22.4467C15.5364 22.6489 15.286 22.75 14.9873 22.75H13.0127ZM6.30467 22.75C6.00581 22.75 5.75536 22.6489 5.55333 22.4467C5.35111 22.2446 5.25 21.9942 5.25 21.6953V12.031C5.25 11.7268 5.35111 11.4742 5.55333 11.2729C5.75536 11.0719 6.00581 10.9713 6.30467 10.9713H8.27896C8.57763 10.9713 8.82807 11.0723 9.03029 11.2744C9.23232 11.4764 9.33333 11.7268 9.33333 12.0257V21.6901C9.33333 21.9944 9.23232 22.2471 9.03029 22.4481C8.82807 22.6494 8.57763 22.75 8.27896 22.75H6.30467Z" fill="#51459E"/>
</svg>
