<svg width="22" height="32" viewBox="0 0 22 32" fill="none" xmlns="http://www.w3.org/2000/svg">
<path d="M10.127 0.0316782C8.87837 0.118994 7.45951 0.511915 6.28076 1.09693C5.1544 1.65139 4.30745 2.2626 3.42557 3.14886C2.07219 4.50225 1.18594 6.01282 0.662055 7.86392C0.478694 8.51442 0.304064 9.61897 0.30843 10.0992L0.317161 10.4834L0.352087 10.1778C0.483059 9.1562 0.87161 7.92068 1.41296 6.83796C2.23372 5.18769 3.56527 3.70768 5.16313 2.65989C5.65646 2.33682 6.82211 1.7649 7.39839 1.56844C7.86552 1.40254 8.05761 1.34578 8.59896 1.20171C9.08793 1.0751 10.2972 0.94413 11.0001 0.94413C11.703 0.94413 12.9167 1.0751 13.4013 1.20171C14.2482 1.42873 14.6499 1.56407 15.3091 1.84348C15.7544 2.03121 16.5839 2.48962 17.0074 2.77776C19.5002 4.46733 21.2072 7.17849 21.6307 10.1123L21.6874 10.4834L21.6918 10.0861C21.6918 9.86782 21.6787 9.58404 21.6525 9.45307C21.6307 9.3221 21.5783 9.02086 21.5434 8.78074C21.4124 7.9556 21.0588 6.87725 20.6353 6.00846C19.7753 4.2534 18.3651 2.68608 16.6974 1.63829C14.7459 0.411502 12.4801 -0.142954 10.127 0.0316782Z" fill="#C21807"/>
<path d="M10.127 0.0316782C8.87837 0.118994 7.45951 0.511915 6.28076 1.09693C5.1544 1.65139 4.30745 2.2626 3.42557 3.14886C2.07219 4.50225 1.18594 6.01282 0.662055 7.86392C0.478694 8.51442 0.304064 9.61897 0.30843 10.0992L0.317161 10.4834L0.352087 10.1778C0.483059 9.1562 0.87161 7.92068 1.41296 6.83796C2.23372 5.18769 3.56527 3.70768 5.16313 2.65989C5.65646 2.33682 6.82211 1.7649 7.39839 1.56844C7.86552 1.40254 8.05761 1.34578 8.59896 1.20171C9.08793 1.0751 10.2972 0.94413 11.0001 0.94413C11.703 0.94413 12.9167 1.0751 13.4013 1.20171C14.2482 1.42873 14.6499 1.56407 15.3091 1.84348C15.7544 2.03121 16.5839 2.48962 17.0074 2.77776C19.5002 4.46733 21.2072 7.17849 21.6307 10.1123L21.6874 10.4834L21.6918 10.0861C21.6918 9.86782 21.6787 9.58404 21.6525 9.45307C21.6307 9.3221 21.5783 9.02086 21.5434 8.78074C21.4124 7.9556 21.0588 6.87725 20.6353 6.00846C19.7753 4.2534 18.3651 2.68608 16.6974 1.63829C14.7459 0.411502 12.4801 -0.142954 10.127 0.0316782Z" fill="url(#paint0_linear_732_5494)"/>
<path d="M9.99627 1.75627C7.39865 2.06624 5.16776 3.27993 3.60919 5.22271C2.52212 6.58047 1.86726 8.03429 1.56603 9.76314C1.49181 10.191 1.46125 12.2211 1.52237 12.6533C1.60968 13.2601 1.90655 14.2643 2.24272 15.0763C2.63563 16.0237 3.4302 17.5561 4.0545 18.569C4.46924 19.2369 5.38605 20.6514 5.68728 21.0793C5.88374 21.3587 6.15005 21.7385 6.27666 21.9219C6.50368 22.245 7.19346 23.1749 7.8003 23.9738C8.82625 25.3272 10.9087 27.8594 10.996 27.8594C11.0615 27.8594 12.5982 26.0345 13.4758 24.9125C14.004 24.2401 15.4403 22.3279 15.7285 21.9219C16.1301 21.3456 16.7326 20.4681 16.8505 20.2891C17.8546 18.7218 18.003 18.4816 18.313 17.949C19.1556 16.5127 19.9458 14.762 20.2557 13.64C20.5002 12.7581 20.5308 12.483 20.5046 11.2039C20.4915 10.5664 20.4609 9.92031 20.4347 9.76314C19.9501 7.01269 18.5007 4.77304 16.2393 3.27993C15.7154 2.93503 14.7942 2.4548 14.4275 2.34129C14.3314 2.31072 14.1961 2.2627 14.1219 2.22777C13.9167 2.13609 13.0523 1.91344 12.6026 1.83485C12.2184 1.76937 10.3717 1.71261 9.99627 1.75627ZM11.6247 3.52005C11.8604 3.54188 12.1267 3.58117 12.2141 3.60737C12.3014 3.6292 12.5371 3.69032 12.7336 3.73834C13.4321 3.90861 14.3009 4.34519 14.9514 4.85162C15.6674 5.40607 16.3702 6.2705 16.7806 7.08691C17.4049 8.33553 17.597 9.83736 17.3089 11.2039C16.833 13.4741 15.2875 15.2379 13.0959 16.0281C12.3538 16.29 11.2842 16.4297 10.542 16.3555C9.58152 16.2638 8.90047 16.0717 8.119 15.6832C6.8704 15.0632 5.86628 14.0504 5.24198 12.7974C4.93201 12.1774 4.84906 11.9329 4.68753 11.2039C4.526 10.466 4.51727 9.45754 4.66133 8.75901C4.93201 7.47546 5.48209 6.40148 6.32031 5.52395C7.72172 4.04831 9.63828 3.32796 11.6247 3.52005Z" fill="#C21807"/>
<path d="M9.99627 1.75627C7.39865 2.06624 5.16776 3.27993 3.60919 5.22271C2.52212 6.58047 1.86726 8.03429 1.56603 9.76314C1.49181 10.191 1.46125 12.2211 1.52237 12.6533C1.60968 13.2601 1.90655 14.2643 2.24272 15.0763C2.63563 16.0237 3.4302 17.5561 4.0545 18.569C4.46924 19.2369 5.38605 20.6514 5.68728 21.0793C5.88374 21.3587 6.15005 21.7385 6.27666 21.9219C6.50368 22.245 7.19346 23.1749 7.8003 23.9738C8.82625 25.3272 10.9087 27.8594 10.996 27.8594C11.0615 27.8594 12.5982 26.0345 13.4758 24.9125C14.004 24.2401 15.4403 22.3279 15.7285 21.9219C16.1301 21.3456 16.7326 20.4681 16.8505 20.2891C17.8546 18.7218 18.003 18.4816 18.313 17.949C19.1556 16.5127 19.9458 14.762 20.2557 13.64C20.5002 12.7581 20.5308 12.483 20.5046 11.2039C20.4915 10.5664 20.4609 9.92031 20.4347 9.76314C19.9501 7.01269 18.5007 4.77304 16.2393 3.27993C15.7154 2.93503 14.7942 2.4548 14.4275 2.34129C14.3314 2.31072 14.1961 2.2627 14.1219 2.22777C13.9167 2.13609 13.0523 1.91344 12.6026 1.83485C12.2184 1.76937 10.3717 1.71261 9.99627 1.75627ZM11.6247 3.52005C11.8604 3.54188 12.1267 3.58117 12.2141 3.60737C12.3014 3.6292 12.5371 3.69032 12.7336 3.73834C13.4321 3.90861 14.3009 4.34519 14.9514 4.85162C15.6674 5.40607 16.3702 6.2705 16.7806 7.08691C17.4049 8.33553 17.597 9.83736 17.3089 11.2039C16.833 13.4741 15.2875 15.2379 13.0959 16.0281C12.3538 16.29 11.2842 16.4297 10.542 16.3555C9.58152 16.2638 8.90047 16.0717 8.119 15.6832C6.8704 15.0632 5.86628 14.0504 5.24198 12.7974C4.93201 12.1774 4.84906 11.9329 4.68753 11.2039C4.526 10.466 4.51727 9.45754 4.66133 8.75901C4.93201 7.47546 5.48209 6.40148 6.32031 5.52395C7.72172 4.04831 9.63828 3.32796 11.6247 3.52005Z" fill="url(#paint1_linear_732_5494)"/>
<path d="M16.2698 10.1429C16.2567 10.1866 16.2218 10.3568 16.1912 10.5271C15.9336 11.9722 14.7636 13.4653 13.3404 14.1638C11.7425 14.9453 9.77795 14.8667 8.27177 13.9586C7.98363 13.7796 7.41172 13.3212 7.14978 13.0505C6.48619 12.3651 5.9492 11.3522 5.80513 10.5009C5.73528 10.0993 5.68289 10.025 5.70472 10.3612C5.77457 11.3653 6.03215 12.1599 6.5735 12.9981C7.34187 14.1944 8.64286 15.0632 10.0399 15.312C10.5027 15.395 11.5854 15.3862 12.0481 15.2946C13.9298 14.9235 15.4883 13.5089 16.0559 11.6622C16.1869 11.2387 16.248 10.9157 16.3047 10.3394C16.3309 10.0818 16.3135 9.98574 16.2698 10.1429Z" fill="#C21807"/>
<path d="M16.2698 10.1429C16.2567 10.1866 16.2218 10.3568 16.1912 10.5271C15.9336 11.9722 14.7636 13.4653 13.3404 14.1638C11.7425 14.9453 9.77795 14.8667 8.27177 13.9586C7.98363 13.7796 7.41172 13.3212 7.14978 13.0505C6.48619 12.3651 5.9492 11.3522 5.80513 10.5009C5.73528 10.0993 5.68289 10.025 5.70472 10.3612C5.77457 11.3653 6.03215 12.1599 6.5735 12.9981C7.34187 14.1944 8.64286 15.0632 10.0399 15.312C10.5027 15.395 11.5854 15.3862 12.0481 15.2946C13.9298 14.9235 15.4883 13.5089 16.0559 11.6622C16.1869 11.2387 16.248 10.9157 16.3047 10.3394C16.3309 10.0818 16.3135 9.98574 16.2698 10.1429Z" fill="url(#paint2_linear_732_5494)"/>
<path d="M4.47332 28.1647C3.26838 28.4397 2.50874 28.7191 1.95429 29.0859C1.50025 29.3871 1.35618 29.7844 1.57447 30.1337C2.02851 30.8715 4.42966 31.57 7.39836 31.8319C7.83057 31.8669 8.23222 31.9105 8.29334 31.9193C8.35446 31.9324 8.99186 31.9586 9.7122 31.9847C11.0656 32.024 13.0782 31.9847 13.9033 31.8974C14.1434 31.8712 14.6542 31.8232 15.0384 31.7883C15.4226 31.7534 15.8461 31.7053 15.977 31.6791C16.108 31.6573 16.4616 31.6006 16.7629 31.5482C18.6052 31.2426 20.0983 30.6619 20.4257 30.1337C20.5349 29.959 20.5436 29.6752 20.4476 29.47C20.2336 29.0204 19.1116 28.5227 17.505 28.1647C17.1165 28.0774 16.7891 28.0162 16.776 28.025C16.7672 28.0381 16.8633 28.0686 16.9899 28.0992C17.2431 28.1603 17.7583 28.3524 18.042 28.4965C18.3302 28.6405 18.5746 28.8632 18.6576 29.0553C18.7274 29.2081 18.7318 29.2474 18.6838 29.3696C18.5048 29.8018 17.9678 30.0856 16.6275 30.4742C16.4049 30.5397 15.5274 30.7012 14.8638 30.806C14.449 30.8671 13.1218 30.9719 12.0348 31.0243C11.3013 31.0636 10.7643 31.0636 9.98288 31.0243C8.89581 30.9762 7.59046 30.8758 7.16261 30.8103C4.83567 30.4524 3.60454 29.9983 3.33823 29.4133C3.26401 29.2387 3.26401 29.2299 3.33823 29.0597C3.49539 28.7148 3.90141 28.4615 4.75709 28.1821C5.37703 27.9769 5.31591 27.9769 4.47332 28.1647Z" fill="#C21807"/>
<path d="M4.47332 28.1647C3.26838 28.4397 2.50874 28.7191 1.95429 29.0859C1.50025 29.3871 1.35618 29.7844 1.57447 30.1337C2.02851 30.8715 4.42966 31.57 7.39836 31.8319C7.83057 31.8669 8.23222 31.9105 8.29334 31.9193C8.35446 31.9324 8.99186 31.9586 9.7122 31.9847C11.0656 32.024 13.0782 31.9847 13.9033 31.8974C14.1434 31.8712 14.6542 31.8232 15.0384 31.7883C15.4226 31.7534 15.8461 31.7053 15.977 31.6791C16.108 31.6573 16.4616 31.6006 16.7629 31.5482C18.6052 31.2426 20.0983 30.6619 20.4257 30.1337C20.5349 29.959 20.5436 29.6752 20.4476 29.47C20.2336 29.0204 19.1116 28.5227 17.505 28.1647C17.1165 28.0774 16.7891 28.0162 16.776 28.025C16.7672 28.0381 16.8633 28.0686 16.9899 28.0992C17.2431 28.1603 17.7583 28.3524 18.042 28.4965C18.3302 28.6405 18.5746 28.8632 18.6576 29.0553C18.7274 29.2081 18.7318 29.2474 18.6838 29.3696C18.5048 29.8018 17.9678 30.0856 16.6275 30.4742C16.4049 30.5397 15.5274 30.7012 14.8638 30.806C14.449 30.8671 13.1218 30.9719 12.0348 31.0243C11.3013 31.0636 10.7643 31.0636 9.98288 31.0243C8.89581 30.9762 7.59046 30.8758 7.16261 30.8103C4.83567 30.4524 3.60454 29.9983 3.33823 29.4133C3.26401 29.2387 3.26401 29.2299 3.33823 29.0597C3.49539 28.7148 3.90141 28.4615 4.75709 28.1821C5.37703 27.9769 5.31591 27.9769 4.47332 28.1647Z" fill="url(#paint3_linear_732_5494)"/>
<path d="M8.14043 28.0425C7.93087 28.0949 7.30657 28.3263 7.21489 28.383C7.06209 28.4878 6.97041 28.6494 7.00097 28.776C7.06209 29.0117 7.75625 29.3042 8.55518 29.4265C8.80839 29.4658 9.15328 29.5225 9.31918 29.5531C9.51564 29.588 10.105 29.6055 11 29.6055C11.895 29.6055 12.4843 29.588 12.6808 29.5531C12.8511 29.5225 13.1916 29.4658 13.4448 29.4265C13.9294 29.3523 14.5362 29.1645 14.7807 29.0117C15.0645 28.8371 15.082 28.6232 14.8287 28.4311C14.6759 28.3132 14.0909 28.0862 13.8159 28.0381C13.65 28.0076 13.65 28.012 13.9076 28.1386C14.2437 28.3088 14.3267 28.4529 14.1782 28.6144C14.0604 28.7454 13.6413 28.9419 13.3357 29.0117C11.8644 29.3479 9.29298 29.2911 8.29323 28.8982C7.634 28.6363 7.57288 28.4005 8.09241 28.1429C8.33252 28.0207 8.34562 27.9945 8.14043 28.0425Z" fill="#C21807"/>
<path d="M8.14043 28.0425C7.93087 28.0949 7.30657 28.3263 7.21489 28.383C7.06209 28.4878 6.97041 28.6494 7.00097 28.776C7.06209 29.0117 7.75625 29.3042 8.55518 29.4265C8.80839 29.4658 9.15328 29.5225 9.31918 29.5531C9.51564 29.588 10.105 29.6055 11 29.6055C11.895 29.6055 12.4843 29.588 12.6808 29.5531C12.8511 29.5225 13.1916 29.4658 13.4448 29.4265C13.9294 29.3523 14.5362 29.1645 14.7807 29.0117C15.0645 28.8371 15.082 28.6232 14.8287 28.4311C14.6759 28.3132 14.0909 28.0862 13.8159 28.0381C13.65 28.0076 13.65 28.012 13.9076 28.1386C14.2437 28.3088 14.3267 28.4529 14.1782 28.6144C14.0604 28.7454 13.6413 28.9419 13.3357 29.0117C11.8644 29.3479 9.29298 29.2911 8.29323 28.8982C7.634 28.6363 7.57288 28.4005 8.09241 28.1429C8.33252 28.0207 8.34562 27.9945 8.14043 28.0425Z" fill="url(#paint4_linear_732_5494)"/>
<defs>
<linearGradient id="paint0_linear_732_5494" x1="-7.91873" y1="3.0578" x2="3.8985" y2="-6.70979" gradientUnits="userSpaceOnUse">
<stop stop-color="#C289FF"/>
<stop offset="1" stop-color="#5555FF"/>
</linearGradient>
<linearGradient id="paint1_linear_732_5494" x1="-5.829" y1="9.3588" x2="10.4479" y2="4.55505" gradientUnits="userSpaceOnUse">
<stop stop-color="#C289FF"/>
<stop offset="1" stop-color="#5555FF"/>
</linearGradient>
<linearGradient id="paint2_linear_732_5494" x1="1.61479" y1="11.6133" x2="7.57017" y2="6.78113" gradientUnits="userSpaceOnUse">
<stop stop-color="#C289FF"/>
<stop offset="1" stop-color="#5555FF"/>
</linearGradient>
<linearGradient id="paint3_linear_732_5494" x1="-5.85095" y1="29.1838" x2="-2.13461" y2="21.9722" gradientUnits="userSpaceOnUse">
<stop stop-color="#C289FF"/>
<stop offset="1" stop-color="#5555FF"/>
</linearGradient>
<linearGradient id="paint4_linear_732_5494" x1="3.91268" y1="28.4824" x2="5.34796" y2="25.5436" gradientUnits="userSpaceOnUse">
<stop stop-color="#C289FF"/>
<stop offset="1" stop-color="#5555FF"/>
</linearGradient>
</defs>
</svg>
