<svg width="28" height="28" viewBox="0 0 28 28" fill="none" xmlns="http://www.w3.org/2000/svg">
<path d="M12.775 18.4514L17.0649 14.1616C17.2383 13.9882 17.4473 13.8995 17.692 13.8956C17.9364 13.8919 18.1491 13.9806 18.3301 14.1616C18.5112 14.3426 18.6017 14.5535 18.6017 14.7942C18.6017 15.0349 18.5112 15.2458 18.3301 15.4269L13.5132 20.244C13.3023 20.4548 13.0562 20.5602 12.775 20.5602C12.4939 20.5602 12.2478 20.4548 12.0368 20.244L9.66996 17.8769C9.49651 17.7034 9.40785 17.4944 9.40396 17.2498C9.40026 17.0054 9.48893 16.7926 9.66996 16.6116C9.85099 16.4306 10.0619 16.3401 10.3026 16.3401C10.5433 16.3401 10.7542 16.4306 10.9352 16.6116L12.775 18.4514ZM6.19242 25.0834C5.60305 25.0834 5.10421 24.8792 4.69587 24.4709C4.28754 24.0625 4.08337 23.5637 4.08337 22.9743V7.35906C4.08337 6.7697 4.28754 6.27085 4.69587 5.86252C5.10421 5.45418 5.60305 5.25002 6.19242 5.25002H7.80767V3.67939C7.80767 3.4237 7.89332 3.2102 8.06462 3.03889C8.23593 2.86778 8.44943 2.78223 8.70512 2.78223C8.96101 2.78223 9.17451 2.86778 9.34562 3.03889C9.51693 3.2102 9.60258 3.4237 9.60258 3.67939V5.25002H18.4424V3.65723C18.4424 3.40892 18.5261 3.20096 18.6935 3.03335C18.8612 2.86593 19.0691 2.78223 19.3174 2.78223C19.5657 2.78223 19.7736 2.86593 19.941 3.03335C20.1086 3.20096 20.1924 3.40892 20.1924 3.65723V5.25002H21.8077C22.397 5.25002 22.8959 5.45418 23.3042 5.86252C23.7125 6.27085 23.9167 6.7697 23.9167 7.35906V22.9743C23.9167 23.5637 23.7125 24.0625 23.3042 24.4709C22.8959 24.8792 22.397 25.0834 21.8077 25.0834H6.19242ZM6.19242 23.3334H21.8077C21.8975 23.3334 21.9797 23.2959 22.0544 23.2211C22.1293 23.1464 22.1667 23.0641 22.1667 22.9743V12.0257H5.83337V22.9743C5.83337 23.0641 5.8708 23.1464 5.94567 23.2211C6.02033 23.2959 6.10258 23.3334 6.19242 23.3334Z" fill="#F87C5B"/>
</svg>
