<svg width="20" height="20" viewBox="0 0 20 20" fill="none" xmlns="http://www.w3.org/2000/svg">
<path d="M14.4862 2.77194C14.4862 3.26777 14.2042 4.00666 13.8737 4.40527C13.4654 4.87194 12.8626 5.18305 12.182 5.27055C11.9001 5.30944 11.6667 5.37749 11.6667 5.41638C11.6667 5.45527 11.9001 5.52333 12.182 5.56221C12.882 5.65944 13.4556 5.9511 13.8542 6.41777C14.2042 6.8261 14.4862 7.56499 14.4862 8.06082C14.4862 8.45944 14.6612 8.39138 14.7292 7.9636C14.8945 7.02055 15.1084 6.58305 15.6529 6.11638C15.9154 5.89277 16.5667 5.63027 17.0431 5.56221C17.2959 5.52333 17.5001 5.45527 17.5001 5.40666C17.5001 5.36777 17.2959 5.29971 17.0431 5.27055C16.3431 5.1636 15.8473 4.91083 15.3904 4.42471C15.0112 3.99694 14.7779 3.48166 14.7779 3.01499C14.7779 2.74277 14.6806 2.49971 14.5737 2.49971C14.5251 2.49971 14.4862 2.6261 14.4862 2.77194Z" fill="url(#paint0_linear_444_1726)"/>
<path d="M8.98288 6.033C8.93421 6.1498 8.85634 6.59757 8.79793 7.02588C8.60325 8.49573 7.98027 9.60542 6.86084 10.4426C6.15025 10.9779 5.48833 11.231 4.32023 11.4062C3.81406 11.4841 3.37602 11.5717 3.34682 11.5912C3.32735 11.6204 3.32735 11.708 3.35655 11.7761C3.39549 11.8735 3.64858 11.9416 4.12555 11.9903C6.64669 12.2434 8.43777 13.869 8.77846 16.2246C8.83687 16.6237 8.90501 17.1007 8.93421 17.2759C8.97315 17.5095 9.03155 17.5874 9.14836 17.5679C9.2749 17.5485 9.33331 17.3441 9.43065 16.6529C9.68374 14.6964 10.4527 13.4796 11.9518 12.623C12.5358 12.2823 13.2367 12.0876 14.2101 11.9903C14.6871 11.9416 14.9402 11.8735 14.9791 11.7761C15.0083 11.708 15.0083 11.6107 14.9694 11.5814C14.9402 11.5522 14.4729 11.4646 13.9278 11.3965C11.3093 11.0558 9.66427 9.33286 9.41118 6.66571C9.33331 5.88698 9.14836 5.60469 8.98288 6.033Z" fill="url(#paint1_linear_444_1726)"/>
<path d="M3.60107 6.13363C3.526 6.49231 3.184 6.83431 2.79195 6.93441L2.5 7.01782L2.80863 7.07621C3.184 7.14294 3.46761 7.42655 3.59273 7.85197L3.68449 8.16895L3.74288 7.86031C3.80961 7.48494 4.09322 7.20133 4.51864 7.07621L4.83561 6.98446L4.53532 6.92607C4.17664 6.85933 3.83464 6.51733 3.73454 6.12528L3.65112 5.83333L3.60107 6.13363Z" fill="url(#paint2_linear_444_1726)"/>
<path d="M19.5834 6.87508V16.389C19.5834 18.1532 18.1532 19.5834 16.389 19.5834H3.61119C1.84695 19.5834 0.416748 18.1532 0.416748 16.389V3.61119C0.416748 1.84695 1.84695 0.416748 3.61119 0.416748H13.1251" stroke="url(#paint3_linear_444_1726)" stroke-width="0.798611" stroke-linecap="round"/>
<defs>
<linearGradient id="paint0_linear_444_1726" x1="14.5834" y1="8.3252" x2="14.5834" y2="2.49971" gradientUnits="userSpaceOnUse">
<stop stop-color="#3BAAFF"/>
<stop offset="1" stop-color="#5556FF"/>
</linearGradient>
<linearGradient id="paint1_linear_444_1726" x1="9.16659" y1="17.5708" x2="9.16659" y2="5.83308" gradientUnits="userSpaceOnUse">
<stop stop-color="#3BAAFF"/>
<stop offset="1" stop-color="#5556FF"/>
</linearGradient>
<linearGradient id="paint2_linear_444_1726" x1="3.66781" y1="8.16895" x2="3.66781" y2="5.83333" gradientUnits="userSpaceOnUse">
<stop stop-color="#3BAAFF"/>
<stop offset="1" stop-color="#5556FF"/>
</linearGradient>
<linearGradient id="paint3_linear_444_1726" x1="10.0001" y1="0.416748" x2="10.0001" y2="19.5834" gradientUnits="userSpaceOnUse">
<stop stop-color="#3BAAFF"/>
<stop offset="1" stop-color="#5556FF"/>
</linearGradient>
</defs>
</svg>
