<svg width="20" height="15" viewBox="0 0 20 15" fill="none" xmlns="http://www.w3.org/2000/svg">
<path d="M2.30775 15C1.80258 15 1.375 14.825 1.025 14.475C0.675 14.125 0.5 13.6974 0.5 13.1923V1.80775C0.5 1.30258 0.675 0.875 1.025 0.525C1.375 0.175 1.80258 0 2.30775 0H17.6923C18.1974 0 18.625 0.175 18.975 0.525C19.325 0.875 19.5 1.30258 19.5 1.80775V13.1923C19.5 13.6974 19.325 14.125 18.975 14.475C18.625 14.825 18.1974 15 17.6923 15H2.30775ZM18 2.94225L10.4865 7.752C10.4097 7.7955 10.3302 7.82975 10.248 7.85475C10.166 7.87975 10.0833 7.89225 10 7.89225C9.91667 7.89225 9.834 7.87975 9.752 7.85475C9.66983 7.82975 9.59033 7.7955 9.5135 7.752L2 2.94225V13.1923C2 13.2821 2.02883 13.3558 2.0865 13.4135C2.14417 13.4712 2.21792 13.5 2.30775 13.5H17.6923C17.7821 13.5 17.8558 13.4712 17.9135 13.4135C17.9712 13.3558 18 13.2821 18 13.1923V2.94225ZM10 6.5L17.8463 1.5H2.15375L10 6.5ZM2 3.173V2.02975V2.0595V2.02775V3.173Z" fill="#969696"/>
</svg>
