<svg width="16" height="19" viewBox="0 0 16 19" fill="none" xmlns="http://www.w3.org/2000/svg">
<path d="M7.99917 17.0135C9.95551 15.2622 11.4526 13.5823 12.4904 11.974C13.5283 10.3657 14.0472 8.957 14.0472 7.748C14.0472 5.925 13.468 4.42633 12.3097 3.252C11.1513 2.07767 9.71451 1.4905 7.99917 1.4905C6.28384 1.4905 4.847 2.07767 3.68867 3.252C2.53034 4.42633 1.95117 5.925 1.95117 7.748C1.95117 8.957 2.47009 10.3657 3.50792 11.974C4.54576 13.5823 6.04284 15.2622 7.99917 17.0135ZM7.99917 18.4403C7.80434 18.4403 7.6095 18.4067 7.41467 18.3395C7.21967 18.2722 7.04334 18.168 6.88567 18.027C5.98834 17.2 5.14859 16.3483 4.36642 15.472C3.58442 14.5958 2.90467 13.7199 2.32717 12.8443C1.74951 11.9686 1.29242 11.1007 0.955922 10.2405C0.619422 9.38017 0.451172 8.54933 0.451172 7.748C0.451172 5.44033 1.19759 3.57208 2.69042 2.14325C4.18342 0.714416 5.953 0 7.99917 0C10.0453 0 11.8149 0.714416 13.3079 2.14325C14.8008 3.57208 15.5472 5.44033 15.5472 7.748C15.5472 8.54933 15.3789 9.3785 15.0424 10.2355C14.7059 11.0927 14.2505 11.9607 13.6762 12.8395C13.1017 13.7183 12.4234 14.5943 11.6414 15.4672C10.8594 16.3404 10.0197 17.1904 9.12217 18.0173C8.96684 18.1583 8.79026 18.264 8.59242 18.3345C8.39476 18.405 8.197 18.4403 7.99917 18.4403ZM8.00092 9.36525C8.49842 9.36525 8.92375 9.18808 9.27692 8.83375C9.63025 8.47942 9.80692 8.0535 9.80692 7.556C9.80692 7.0585 9.62976 6.63308 9.27542 6.27975C8.92109 5.92658 8.49509 5.75 7.99742 5.75C7.49992 5.75 7.07459 5.92717 6.72142 6.2815C6.36809 6.63583 6.19142 7.06183 6.19142 7.5595C6.19142 8.057 6.36859 8.48233 6.72292 8.8355C7.07726 9.18867 7.50325 9.36525 8.00092 9.36525Z" fill="#969696"/>
</svg>
