<svg width="72" height="72" viewBox="0 0 72 72" fill="none" xmlns="http://www.w3.org/2000/svg">
<rect width="72" height="72" rx="16" fill="#ECEBFF"/>
<path d="M57.5677 47.6464L57.577 47.6413H57.5589L46.9326 41.8833L36.2887 36.1152L25.6443 41.8833L15.0181 47.6413H15L15.0093 47.6464L15 47.6515H15.0181L25.6443 53.4094L36.2887 59.1775L46.9326 53.4094L57.5589 47.6515H57.577L57.5677 47.6464Z" fill="#DCD8FF"/>
<path d="M57.5677 25.5312L57.577 25.5265H57.5589L46.9326 19.7681L36.2887 14L25.6443 19.7681L15.0181 25.5265H15L15.0093 25.5312L15 25.5362H15.0181L25.6443 31.2946L36.2887 37.0627L46.9326 31.2946L57.5589 25.5362H57.577L57.5677 25.5312Z" fill="#3859FF"/>
<path d="M57.5677 25.5312L57.577 25.5265H57.5589L46.9326 19.7681L36.2887 14L25.6443 19.7681L15.0181 25.5265H15L15.0093 25.5312L15 25.5362H15.0181L25.6443 31.2946L36.2887 37.0627L46.9326 31.2946L57.5589 25.5362H57.577L57.5677 25.5312Z" fill="url(#paint0_linear_338_117)"/>
<path d="M15.0176 25.0625V48.1151L36.2882 36.589L15.0176 25.0625Z" fill="#3859FF" fill-opacity="0.6"/>
<path d="M57.5593 25.0625V48.1151L36.2891 36.589L57.5593 25.0625Z" fill="#3859FF" fill-opacity="0.6"/>
<defs>
<linearGradient id="paint0_linear_338_117" x1="13.3593" y1="32.8948" x2="38.6793" y2="49.3194" gradientUnits="userSpaceOnUse">
<stop stop-color="#6A1AFF"/>
<stop offset="1" stop-color="#727DFF"/>
</linearGradient>
</defs>
</svg>
