<svg width="30" height="35" viewBox="0 0 30 35" fill="none" xmlns="http://www.w3.org/2000/svg">
<path d="M26.8945 10.6562C26.8945 10.9492 26.8945 11.1836 26.8945 11.4766C26.8945 19.6211 20.7422 28.9375 9.43359 28.9375C5.91797 28.9375 2.69531 27.9414 0 26.1836C0.46875 26.2422 0.9375 26.3008 1.46484 26.3008C4.33594 26.3008 6.97266 25.3047 9.08203 23.6641C6.38672 23.6055 4.10156 21.8477 3.33984 19.3867C3.75 19.4453 4.10156 19.5039 4.51172 19.5039C5.03906 19.5039 5.625 19.3867 6.09375 19.2695C3.28125 18.6836 1.17188 16.2227 1.17188 13.2344V13.1758C1.99219 13.6445 2.98828 13.8789 3.98438 13.9375C2.28516 12.8242 1.23047 10.9492 1.23047 8.83984C1.23047 7.66797 1.52344 6.61328 2.05078 5.73438C5.09766 9.42578 9.66797 11.8867 14.7656 12.1797C14.6484 11.7109 14.5898 11.2422 14.5898 10.7734C14.5898 7.375 17.3438 4.62109 20.7422 4.62109C22.5 4.62109 24.082 5.32422 25.2539 6.55469C26.6016 6.26172 27.9492 5.73438 29.1211 5.03125C28.6523 6.49609 27.7148 7.66797 26.4258 8.42969C27.6562 8.3125 28.8867 7.96094 29.9414 7.49219C29.1211 8.72266 28.0664 9.77734 26.8945 10.6562Z" fill="#8C8B99"/>
</svg>
