<svg width="27" height="35" viewBox="0 0 27 35" fill="none" xmlns="http://www.w3.org/2000/svg">
<path d="M24.375 3.625C25.3711 3.625 26.25 4.50391 26.25 5.55859V28C26.25 29.0547 25.3711 29.875 24.375 29.875H1.81641C0.820312 29.875 0 29.0547 0 28V5.55859C0 4.50391 0.820312 3.625 1.81641 3.625H24.375ZM7.91016 26.125V13.6445H4.04297V26.125H7.91016ZM5.97656 11.8867C7.20703 11.8867 8.20312 10.8906 8.20312 9.66016C8.20312 8.42969 7.20703 7.375 5.97656 7.375C4.6875 7.375 3.69141 8.42969 3.69141 9.66016C3.69141 10.8906 4.6875 11.8867 5.97656 11.8867ZM22.5 26.125V19.2695C22.5 15.9297 21.7383 13.293 17.8125 13.293C15.9375 13.293 14.6484 14.3477 14.1211 15.3438H14.0625V13.6445H10.3711V26.125H14.2383V19.9727C14.2383 18.332 14.5312 16.75 16.582 16.75C18.5742 16.75 18.5742 18.625 18.5742 20.0312V26.125H22.5Z" fill="#8C8B99"/>
</svg>
