<svg width="28" height="35" viewBox="0 0 28 35" fill="none" xmlns="http://www.w3.org/2000/svg">
<path d="M14.125 10.0117C17.8164 10.0117 20.8633 13.0586 20.8633 16.75C20.8633 20.5 17.8164 23.4883 14.125 23.4883C10.375 23.4883 7.38672 20.5 7.38672 16.75C7.38672 13.0586 10.375 10.0117 14.125 10.0117ZM14.125 21.1445C16.5273 21.1445 18.4609 19.2109 18.4609 16.75C18.4609 14.3477 16.5273 12.4141 14.125 12.4141C11.6641 12.4141 9.73047 14.3477 9.73047 16.75C9.73047 19.2109 11.7227 21.1445 14.125 21.1445ZM22.6797 9.77734C22.6797 10.6562 21.9766 11.3594 21.0977 11.3594C20.2188 11.3594 19.5156 10.6562 19.5156 9.77734C19.5156 8.89844 20.2188 8.19531 21.0977 8.19531C21.9766 8.19531 22.6797 8.89844 22.6797 9.77734ZM27.1328 11.3594C27.25 13.5273 27.25 20.0312 27.1328 22.1992C27.0156 24.3086 26.5469 26.125 25.0234 27.707C23.5 29.2305 21.625 29.6992 19.5156 29.8164C17.3477 29.9336 10.8438 29.9336 8.67578 29.8164C6.56641 29.6992 4.75 29.2305 3.16797 27.707C1.64453 26.125 1.17578 24.3086 1.05859 22.1992C0.941406 20.0312 0.941406 13.5273 1.05859 11.3594C1.17578 9.25 1.64453 7.375 3.16797 5.85156C4.75 4.32812 6.56641 3.85938 8.67578 3.74219C10.8438 3.625 17.3477 3.625 19.5156 3.74219C21.625 3.85938 23.5 4.32812 25.0234 5.85156C26.5469 7.375 27.0156 9.25 27.1328 11.3594ZM24.3203 24.4844C25.0234 22.7852 24.8477 18.6836 24.8477 16.75C24.8477 14.875 25.0234 10.7734 24.3203 9.01562C23.8516 7.90234 22.9727 6.96484 21.8594 6.55469C20.1016 5.85156 16 6.02734 14.125 6.02734C12.1914 6.02734 8.08984 5.85156 6.39062 6.55469C5.21875 7.02344 4.33984 7.90234 3.87109 9.01562C3.16797 10.7734 3.34375 14.875 3.34375 16.75C3.34375 18.6836 3.16797 22.7852 3.87109 24.4844C4.33984 25.6562 5.21875 26.5352 6.39062 27.0039C8.08984 27.707 12.1914 27.5312 14.125 27.5312C16 27.5312 20.1016 27.707 21.8594 27.0039C22.9727 26.5352 23.9102 25.6562 24.3203 24.4844Z" fill="#8C8B99"/>
</svg>
