<svg width="30" height="35" viewBox="0 0 30 35" fill="none" xmlns="http://www.w3.org/2000/svg">
<path d="M29.0625 16.75C29.0625 24.7773 22.5586 31.2812 14.5312 31.2812C13.0078 31.2812 11.543 31.1055 10.1953 30.6367C10.7812 29.6992 11.6602 28.1172 12.0117 26.8281C12.1875 26.1836 12.8906 23.3711 12.8906 23.3711C13.3594 24.3086 14.7656 25.0703 16.2305 25.0703C20.625 25.0703 23.7891 21.0273 23.7891 16.0469C23.7891 11.2422 19.8633 7.60938 14.8242 7.60938C8.55469 7.60938 5.21484 11.8281 5.21484 16.3984C5.21484 18.5664 6.32812 21.2031 8.14453 22.082C8.4375 22.1992 8.61328 22.1406 8.67188 21.8477C8.67188 21.6719 8.96484 20.6758 9.08203 20.207C9.08203 20.0898 9.08203 19.9141 8.96484 19.7969C8.37891 19.0938 7.91016 17.7461 7.91016 16.457C7.91016 13.293 10.3125 10.1875 14.4727 10.1875C17.9883 10.1875 20.5078 12.5898 20.5078 16.1055C20.5078 20.0312 18.5156 22.7266 15.9375 22.7266C14.5312 22.7266 13.4766 21.5547 13.7695 20.1484C14.1797 18.3906 15 16.5156 15 15.2852C15 14.1719 14.4141 13.2344 13.1836 13.2344C11.7188 13.2344 10.5469 14.7578 10.5469 16.75C10.5469 18.0391 10.957 18.918 10.957 18.918C10.957 18.918 9.55078 25.0117 9.25781 26.125C8.96484 27.4141 9.08203 29.1719 9.19922 30.2852C3.80859 28.1758 0 22.9609 0 16.75C0 8.72266 6.50391 2.21875 14.5312 2.21875C22.5586 2.21875 29.0625 8.72266 29.0625 16.75Z" fill="#8C8B99"/>
</svg>
