<svg width="28" height="28" viewBox="0 0 28 28" fill="none" xmlns="http://www.w3.org/2000/svg">
<path d="M5.78816 4.95801H22.2113C22.4592 4.95801 22.667 5.04191 22.8346 5.20972C23.0024 5.37752 23.0863 5.58538 23.0863 5.8333C23.0863 6.08141 23.0024 6.28917 22.8346 6.45659C22.667 6.6242 22.4592 6.70801 22.2113 6.70801H5.78816C5.54024 6.70801 5.33248 6.6241 5.16487 6.4563C4.99706 6.28849 4.91316 6.08063 4.91316 5.83272C4.91316 5.5846 4.99706 5.37684 5.16487 5.20942C5.33248 5.04181 5.54024 4.95801 5.78816 4.95801ZM6.01245 23.0413C5.71379 23.0413 5.46334 22.9403 5.26112 22.7383C5.05909 22.5361 4.95808 22.2856 4.95808 21.987V16.0413H4.59699C4.26488 16.0413 3.99149 15.9115 3.77683 15.652C3.56216 15.3926 3.49372 15.0968 3.57149 14.7647L4.73816 9.29042C4.79144 9.04756 4.91549 8.84816 5.11033 8.69222C5.30516 8.53608 5.52663 8.45801 5.77474 8.45801H22.2247C22.4729 8.45801 22.6943 8.53608 22.8892 8.69222C23.084 8.84816 23.208 9.04756 23.2613 9.29042L24.428 14.7647C24.5058 15.0968 24.4373 15.3926 24.2227 15.652C24.008 15.9115 23.7346 16.0413 23.4025 16.0413H23.0414V22.1663C23.0414 22.4143 22.9575 22.622 22.7897 22.7896C22.6219 22.9574 22.414 23.0413 22.1661 23.0413C21.918 23.0413 21.7102 22.9574 21.5428 22.7896C21.3752 22.622 21.2914 22.4143 21.2914 22.1663V16.0413H16.0414V21.987C16.0414 22.2856 15.9404 22.5361 15.7384 22.7383C15.5361 22.9403 15.2857 23.0413 14.987 23.0413H6.01245ZM6.70808 21.2913H14.2914V16.0413H6.70808V21.2913Z" fill="#9E3EBF"/>
</svg>
