<svg width="24" height="24" viewBox="0 0 24 24" fill="none" xmlns="http://www.w3.org/2000/svg">
<path d="M13.4672 1.23739C12.9703 1.39676 12.5531 1.77645 12.3656 2.2452L12.2578 2.5077V6.49207V10.4764L12.4031 10.7811C12.6656 11.3296 13.1156 11.6671 13.7203 11.7655C14.1 11.8311 21.0328 11.8264 21.4172 11.7655C22.0078 11.6671 22.4437 11.3343 22.7016 10.7905L22.8516 10.4764L22.8656 6.6327C22.875 3.82957 22.8656 2.71864 22.8281 2.53114C22.7109 1.99207 22.3641 1.56082 21.8531 1.32176L21.5859 1.1952L17.625 1.18582C14.4422 1.17645 13.6266 1.19051 13.4672 1.23739ZM21.6328 1.97332C21.7734 2.04364 21.9234 2.1702 22.0078 2.29207L22.1484 2.49364L22.1625 5.18895L22.1719 7.88895L21.7359 7.46707C21.4922 7.23739 21.2203 7.01239 21.1312 6.9702C20.9203 6.87176 20.5359 6.86707 20.3109 6.96082C20.2078 7.00301 19.7906 7.3827 19.2375 7.92645L18.3375 8.82176L17.7375 8.12801C15.5859 5.65301 15.7312 5.78895 15.2344 5.79364C14.7891 5.79364 14.6812 5.8827 13.7719 7.06864L12.9609 8.12332L12.9469 5.36707L12.9375 2.61551L13.0641 2.38114C13.1344 2.25457 13.2516 2.10457 13.3312 2.04832C13.6312 1.8327 13.6828 1.8327 17.6484 1.84207L21.4031 1.85145L21.6328 1.97332ZM15.4078 6.50614C15.4359 6.52489 16.3453 7.56082 17.4281 8.81239L19.4016 11.0858L16.6078 11.0999C14.8875 11.1046 13.7531 11.0905 13.6453 11.0624C13.4109 11.0014 13.1297 10.7577 13.0266 10.528C12.9562 10.378 12.9375 10.2233 12.9422 9.79676V9.2577L13.7156 8.24989C15.1453 6.39364 15.0797 6.46864 15.225 6.46864C15.2953 6.46864 15.375 6.48739 15.4078 6.50614ZM21.5016 8.21239L22.1719 8.87801V9.60926C22.1719 10.4436 22.1203 10.6124 21.8156 10.8655C21.5719 11.0671 21.3984 11.1093 20.8078 11.1093H20.3156L19.5562 10.228L18.7969 9.35145L19.7016 8.44676C20.3672 7.78582 20.6344 7.54676 20.7187 7.54676C20.7984 7.54676 21.0141 7.73426 21.5016 8.21239Z" fill="#000000"/>
<path d="M18.4453 2.98582C17.4141 3.35614 17.161 4.66395 17.9766 5.38114C18.6563 5.98114 19.7485 5.7702 20.1656 4.95457C20.3016 4.6827 20.3344 4.16707 20.2313 3.85301C20.0016 3.15926 19.1344 2.74207 18.4453 2.98582ZM19.2938 3.70301C19.5047 3.83426 19.6594 4.16707 19.6266 4.41082C19.5797 4.7577 19.2422 5.06239 18.9047 5.06239C18.7078 5.06239 18.3891 4.88426 18.2813 4.71551C18.1547 4.50926 18.1547 4.15301 18.2813 3.94676C18.4828 3.61864 18.9656 3.50145 19.2938 3.70301Z" fill="#000000"/>
<path d="M5.61392 6.93452C5.74517 6.58765 6.04985 6.28765 6.39204 6.17515C6.49517 6.13765 6.95923 6.1189 7.72329 6.1189H8.89517L8.69829 5.90796C8.56235 5.75796 8.5061 5.65952 8.5061 5.5564C8.5061 5.37358 8.65142 5.22827 8.8436 5.22827C8.97017 5.22827 9.0686 5.30327 9.52329 5.75796C9.99204 6.22671 10.053 6.3064 10.053 6.44702C10.053 6.58765 9.99204 6.66733 9.52329 7.13608C9.0686 7.59077 8.97017 7.66577 8.8436 7.66577C8.65142 7.66577 8.5061 7.52046 8.5061 7.33765C8.5061 7.23452 8.56235 7.13608 8.69829 6.98608L8.89517 6.77515H7.80767C6.5936 6.77515 6.46704 6.79858 6.30298 7.06577C6.21392 7.21577 6.20923 7.29546 6.20923 9.39077C6.20923 10.4955 6.20454 10.5611 6.11548 10.6501C6.06392 10.7017 5.96079 10.7439 5.8811 10.7439C5.80142 10.7439 5.69829 10.7017 5.64673 10.6501C5.55767 10.5611 5.55298 10.4955 5.55767 9.32046C5.55767 7.72671 5.57642 7.03765 5.61392 6.93452Z" fill="#000000"/>
<path d="M2.46719 12.2374C1.97031 12.3968 1.55312 12.7764 1.36562 13.2452L1.25781 13.5077V17.4921V21.4764L1.40312 21.7811C1.66562 22.3296 2.11562 22.6671 2.72031 22.7655C3.1 22.8311 10.0328 22.8264 10.4172 22.7655C11.0078 22.6671 11.4437 22.3343 11.7016 21.7905L11.8516 21.4764L11.8656 17.6327C11.875 14.8296 11.8656 13.7186 11.8281 13.5311C11.7109 12.9921 11.3641 12.5608 10.8531 12.3218L10.5859 12.1952L6.625 12.1858C3.44219 12.1764 2.62656 12.1905 2.46719 12.2374ZM10.6328 12.9733C10.7734 13.0436 10.9234 13.1702 11.0078 13.2921L11.1484 13.4936L11.1625 16.1889L11.1719 18.8889L10.7359 18.4671C10.4922 18.2374 10.2203 18.0124 10.1312 17.9702C9.92031 17.8718 9.53594 17.8671 9.31094 17.9608C9.20781 18.003 8.79062 18.3827 8.2375 18.9264L7.3375 19.8218L6.7375 19.128C4.58594 16.653 4.73125 16.7889 4.23437 16.7936C3.78906 16.7936 3.68125 16.8827 2.77187 18.0686L1.96094 19.1233L1.94687 16.3671L1.9375 13.6155L2.06406 13.3811C2.13437 13.2546 2.25156 13.1046 2.33125 13.0483C2.63125 12.8327 2.68281 12.8327 6.64844 12.8421L10.4031 12.8514L10.6328 12.9733ZM4.40781 17.5061C4.43594 17.5249 5.34531 18.5608 6.42812 19.8124L8.40156 22.0858L5.60781 22.0999C3.8875 22.1046 2.75312 22.0905 2.64531 22.0624C2.41094 22.0014 2.12969 21.7577 2.02656 21.528C1.95625 21.378 1.9375 21.2233 1.94219 20.7968V20.2577L2.71562 19.2499C4.14531 17.3936 4.07969 17.4686 4.225 17.4686C4.29531 17.4686 4.375 17.4874 4.40781 17.5061ZM10.5016 19.2124L11.1719 19.878V20.6093C11.1719 21.4436 11.1203 21.6124 10.8156 21.8655C10.5719 22.0671 10.3984 22.1093 9.80781 22.1093H9.31562L8.55625 21.228L7.79687 20.3514L8.70156 19.4468C9.36719 18.7858 9.63437 18.5468 9.71875 18.5468C9.79844 18.5468 10.0141 18.7343 10.5016 19.2124Z" fill="#000000"/>
<path d="M16.8563 13.8281C16.3501 14.3391 16.3032 14.4 16.3313 14.5172C16.3501 14.5875 16.4063 14.6859 16.4626 14.7281C16.622 14.8687 16.7813 14.8312 17.0017 14.6156L17.2032 14.4187V15.7172C17.2032 16.7906 17.1892 17.0437 17.1329 17.1562C16.9876 17.4328 16.9595 17.4375 14.986 17.4375C13.2329 17.4375 13.1813 17.4422 13.0595 17.5359C12.9048 17.6578 12.8907 17.8969 13.036 18.0281C13.1298 18.1125 13.2329 18.1172 15.0423 18.1172C16.9407 18.1172 16.9454 18.1172 17.1657 18.0094C17.2876 17.9484 17.4751 17.8031 17.5782 17.6859C17.8829 17.3391 17.9063 17.1891 17.9063 15.7078V14.4187L18.1079 14.6156C18.3517 14.8594 18.5485 14.8828 18.6985 14.6906C18.7548 14.6203 18.797 14.5219 18.797 14.4703C18.797 14.4141 18.586 14.1609 18.2485 13.8187C17.5267 13.0875 17.5829 13.0875 16.8563 13.8281Z" fill="#000000"/>
</svg>
