<svg width="24" height="24" viewBox="0 0 24 24" fill="none" xmlns="http://www.w3.org/2000/svg">
<path d="M3 16.5V5C3 3.89543 3.89543 3 5 3H19C20.1046 3 21 3.89543 21 5V16M3 16.5V19C3 20.1046 3.89543 21 5 21H17M3 16.5L6.51267 12.6361C7.30887 11.7602 8.68732 11.7637 9.47913 12.6435L13.5 17.1111M17 21H19C20.1046 21 21 20.1046 21 19V16M17 21L13.5 17.1111M13.5 17.1111L16.5886 14.2894C17.3782 13.5681 18.5955 13.5955 19.3518 14.3518L21 16" stroke="#000000" stroke-width="0.7"/>
<path d="M6 9V8C6 7.44772 6.44772 7 7 7H8" stroke="#000000" stroke-width="0.5" stroke-linecap="round"/>
<path d="M18 9V8C18 7.44772 17.5523 7 17 7H16" stroke="#000000" stroke-width="0.5" stroke-linecap="round"/>
<path d="M8 8H12M16 8H12M12 8V15" stroke="#000000" stroke-width="0.7" stroke-linecap="round" stroke-linejoin="round"/>
</svg>
