<svg width="24" height="24" viewBox="0 0 24 24" fill="none" xmlns="http://www.w3.org/2000/svg">
<path d="M13.4672 1.23739C12.9703 1.39676 12.5531 1.77645 12.3656 2.2452L12.2578 2.5077V6.49207V10.4764L12.4031 10.7811C12.6656 11.3296 13.1156 11.6671 13.7203 11.7655C14.1 11.8311 21.0328 11.8264 21.4172 11.7655C22.0078 11.6671 22.4437 11.3343 22.7016 10.7905L22.8516 10.4764L22.8656 6.6327C22.875 3.82957 22.8656 2.71864 22.8281 2.53114C22.7109 1.99207 22.3641 1.56082 21.8531 1.32176L21.5859 1.1952L17.625 1.18582C14.4422 1.17645 13.6266 1.19051 13.4672 1.23739ZM21.6328 1.97332C21.7734 2.04364 21.9234 2.1702 22.0078 2.29207L22.1484 2.49364L22.1625 5.18895L22.1719 7.88895L21.7359 7.46707C21.4922 7.23739 21.2203 7.01239 21.1312 6.9702C20.9203 6.87176 20.5359 6.86707 20.3109 6.96082C20.2078 7.00301 19.7906 7.3827 19.2375 7.92645L18.3375 8.82176L17.7375 8.12801C15.5859 5.65301 15.7312 5.78895 15.2344 5.79364C14.7891 5.79364 14.6812 5.8827 13.7719 7.06864L12.9609 8.12332L12.9469 5.36707L12.9375 2.61551L13.0641 2.38114C13.1344 2.25457 13.2516 2.10457 13.3312 2.04832C13.6312 1.8327 13.6828 1.8327 17.6484 1.84207L21.4031 1.85145L21.6328 1.97332ZM15.4078 6.50614C15.4359 6.52489 16.3453 7.56082 17.4281 8.81239L19.4016 11.0858L16.6078 11.0999C14.8875 11.1046 13.7531 11.0905 13.6453 11.0624C13.4109 11.0014 13.1297 10.7577 13.0266 10.528C12.9562 10.378 12.9375 10.2233 12.9422 9.79676V9.2577L13.7156 8.24989C15.1453 6.39364 15.0797 6.46864 15.225 6.46864C15.2953 6.46864 15.375 6.48739 15.4078 6.50614ZM21.5016 8.21239L22.1719 8.87801V9.60926C22.1719 10.4436 22.1203 10.6124 21.8156 10.8655C21.5719 11.0671 21.3984 11.1093 20.8078 11.1093H20.3156L19.5562 10.228L18.7969 9.35145L19.7016 8.44676C20.3672 7.78582 20.6344 7.54676 20.7187 7.54676C20.7984 7.54676 21.0141 7.73426 21.5016 8.21239Z" fill="#ffffff"/>
<path d="M18.4453 2.98582C17.4141 3.35614 17.161 4.66395 17.9766 5.38114C18.6563 5.98114 19.7485 5.7702 20.1656 4.95457C20.3016 4.6827 20.3344 4.16707 20.2313 3.85301C20.0016 3.15926 19.1344 2.74207 18.4453 2.98582ZM19.2938 3.70301C19.5047 3.83426 19.6594 4.16707 19.6266 4.41082C19.5797 4.7577 19.2422 5.06239 18.9047 5.06239C18.7078 5.06239 18.3891 4.88426 18.2813 4.71551C18.1547 4.50926 18.1547 4.15301 18.2813 3.94676C18.4828 3.61864 18.9656 3.50145 19.2938 3.70301Z" fill="#ffffff"/>
<path d="M5.61392 6.93452C5.74517 6.58765 6.04985 6.28765 6.39204 6.17515C6.49517 6.13765 6.95923 6.1189 7.72329 6.1189H8.89517L8.69829 5.90796C8.56235 5.75796 8.5061 5.65952 8.5061 5.5564C8.5061 5.37358 8.65142 5.22827 8.8436 5.22827C8.97017 5.22827 9.0686 5.30327 9.52329 5.75796C9.99204 6.22671 10.053 6.3064 10.053 6.44702C10.053 6.58765 9.99204 6.66733 9.52329 7.13608C9.0686 7.59077 8.97017 7.66577 8.8436 7.66577C8.65142 7.66577 8.5061 7.52046 8.5061 7.33765C8.5061 7.23452 8.56235 7.13608 8.69829 6.98608L8.89517 6.77515H7.80767C6.5936 6.77515 6.46704 6.79858 6.30298 7.06577C6.21392 7.21577 6.20923 7.29546 6.20923 9.39077C6.20923 10.4955 6.20454 10.5611 6.11548 10.6501C6.06392 10.7017 5.96079 10.7439 5.8811 10.7439C5.80142 10.7439 5.69829 10.7017 5.64673 10.6501C5.55767 10.5611 5.55298 10.4955 5.55767 9.32046C5.55767 7.72671 5.57642 7.03765 5.61392 6.93452Z" fill="#ffffff"/>
<path d="M2.54069 12.2391C1.86569 12.3516 1.31726 12.8906 1.17194 13.5844C1.13913 13.725 1.12507 15.1875 1.13444 17.6719L1.14851 21.5391L1.27507 21.8062C1.44851 22.1766 1.73444 22.4719 2.10476 22.6547L2.41413 22.8047H6.44538H10.4766L10.7907 22.65C11.1704 22.4625 11.4844 22.1344 11.6344 21.7594L11.7423 21.4922V17.5078V13.5234L11.5969 13.2188C11.3344 12.6703 10.8844 12.3328 10.2798 12.2344C9.93757 12.1781 2.88288 12.1828 2.54069 12.2391ZM10.3594 12.9375C10.5891 12.9984 10.8704 13.2469 10.9735 13.4719C11.0579 13.6547 11.0626 13.8703 11.0626 17.5266V21.3844L10.9407 21.6141C10.7907 21.8859 10.5563 22.0547 10.2423 22.125C10.0829 22.1578 8.80788 22.1719 6.30476 22.1625L2.59694 22.1484L2.36726 22.0266C2.22663 21.9562 2.07663 21.8297 1.99226 21.7078L1.85163 21.5062L1.83757 17.6109C1.82351 13.2937 1.80944 13.4812 2.12819 13.1766C2.42819 12.8859 2.28757 12.8953 6.42194 12.8906C8.73288 12.8906 10.261 12.9094 10.3594 12.9375Z" fill="#ffffff"/>
<path d="M3 13.6266C2.78906 13.711 2.76562 13.7766 2.76562 14.3297C2.76562 14.7985 2.775 14.8688 2.85938 14.9531C2.98594 15.0797 3.19219 15.075 3.31875 14.9391C3.39844 14.8547 3.42188 14.7703 3.42188 14.5641V14.2969H3.675C3.99375 14.2969 4.17188 14.175 4.17188 13.95C4.17188 13.6875 4.04531 13.6172 3.52031 13.6078C3.27188 13.6031 3.0375 13.6078 3 13.6266Z" fill="#ffffff"/>
<path d="M8.95326 13.6266C8.69076 13.7298 8.63451 14.0344 8.84076 14.1985C8.93451 14.2688 9.03295 14.2969 9.21576 14.2969H9.46889V14.5688C9.46889 14.7938 9.48764 14.8594 9.5767 14.9438C9.71264 15.0751 9.89076 15.0751 10.022 14.9532C10.1158 14.8641 10.1251 14.8126 10.1251 14.3251C10.1251 13.636 10.1111 13.6219 9.47357 13.6079C9.22514 13.6032 8.99076 13.6079 8.95326 13.6266Z" fill="#ffffff"/>
<path d="M4.07812 15.375C3.99375 15.4594 3.98438 15.5297 3.98438 15.9844C3.98438 16.5656 4.04062 16.6875 4.3125 16.6875C4.54219 16.6875 4.64062 16.5469 4.64062 16.2188V15.9375H5.36719H6.09375V17.7656V19.5938H5.85937C5.66719 19.5938 5.59687 19.6172 5.50781 19.7109C5.36719 19.8469 5.35781 20.0297 5.48437 20.1562C5.57344 20.2453 5.63906 20.25 6.44531 20.25C7.275 20.25 7.3125 20.2453 7.40625 20.1469C7.53281 20.0109 7.52344 19.8469 7.38281 19.7109C7.29375 19.6172 7.22344 19.5938 7.03125 19.5938H6.79687V17.7656V15.9328L7.51406 15.9469L8.22656 15.9609L8.25 16.2562C8.26875 16.4812 8.29687 16.5703 8.3625 16.6219C8.49375 16.7156 8.70469 16.7016 8.8125 16.5937C8.89687 16.5094 8.90625 16.4391 8.90625 15.9844C8.90625 15.2062 9.16875 15.2812 6.44531 15.2812C4.23281 15.2812 4.16719 15.2859 4.07812 15.375Z" fill="#ffffff"/>
<path d="M3 20.0062C2.79375 20.0719 2.76562 20.1516 2.76562 20.7047C2.76562 21.4172 2.77031 21.4219 3.46875 21.4219C4.05 21.4219 4.17188 21.3656 4.17188 21.0938C4.17188 20.8641 4.03125 20.7656 3.70313 20.7656H3.42188V20.4937C3.42188 20.3344 3.39375 20.1844 3.35156 20.1234C3.28125 20.025 3.11719 19.9688 3 20.0062Z" fill="#ffffff"/>
<path d="M9.71719 20.0062C9.54844 20.0297 9.46875 20.1937 9.46875 20.4937V20.7656H9.19688C8.85 20.7656 8.71875 20.85 8.71875 21.075C8.71875 21.3656 8.83125 21.4219 9.42188 21.4219C10.1203 21.4219 10.125 21.4172 10.125 20.7047C10.125 20.2547 10.1109 20.1609 10.0453 20.1C9.9375 20.0109 9.84844 19.9828 9.71719 20.0062Z" fill="#ffffff"/>
<path d="M16.8563 13.8281C16.3501 14.3391 16.3032 14.4 16.3313 14.5172C16.3501 14.5875 16.4063 14.6859 16.4626 14.7281C16.622 14.8687 16.7813 14.8312 17.0017 14.6156L17.2032 14.4187V15.7172C17.2032 16.7906 17.1892 17.0437 17.1329 17.1562C16.9876 17.4328 16.9595 17.4375 14.986 17.4375C13.2329 17.4375 13.1813 17.4422 13.0595 17.5359C12.9048 17.6578 12.8907 17.8969 13.036 18.0281C13.1298 18.1125 13.2329 18.1172 15.0423 18.1172C16.9407 18.1172 16.9454 18.1172 17.1657 18.0094C17.2876 17.9484 17.4751 17.8031 17.5782 17.6859C17.8829 17.3391 17.9063 17.1891 17.9063 15.7078V14.4187L18.1079 14.6156C18.3517 14.8594 18.5485 14.8828 18.6985 14.6906C18.7548 14.6203 18.797 14.5219 18.797 14.4703C18.797 14.4141 18.586 14.1609 18.2485 13.8187C17.5267 13.0875 17.5829 13.0875 16.8563 13.8281Z" fill="#ffffff"/>
</svg>
