<svg width="154" height="23" viewBox="0 0 154 23" fill="none" xmlns="http://www.w3.org/2000/svg">
<path d="M11.89 22L4.27 12.67V22H0.0700002V1.06H4.27V10.45L11.89 1.06H16.96L8.32 11.44L17.2 22H11.89ZM24.1626 18.67H31.0626V22H19.9626V1.06H24.1626V18.67ZM46.5721 18.01H38.2321L36.8521 22H32.4421L39.9721 1.03H44.8621L52.3921 22H47.9521L46.5721 18.01ZM45.4321 14.65L42.4021 5.89L39.3721 14.65H45.4321ZM62.4367 22.21C60.9767 22.21 59.6567 21.96 58.4767 21.46C57.3167 20.96 56.3967 20.24 55.7167 19.3C55.0367 18.36 54.6867 17.25 54.6667 15.97H59.1667C59.2267 16.83 59.5267 17.51 60.0667 18.01C60.6267 18.51 61.3867 18.76 62.3467 18.76C63.3267 18.76 64.0967 18.53 64.6567 18.07C65.2167 17.59 65.4967 16.97 65.4967 16.21C65.4967 15.59 65.3067 15.08 64.9267 14.68C64.5467 14.28 64.0667 13.97 63.4867 13.75C62.9267 13.51 62.1467 13.25 61.1467 12.97C59.7867 12.57 58.6767 12.18 57.8167 11.8C56.9767 11.4 56.2467 10.81 55.6267 10.03C55.0267 9.23 54.7267 8.17 54.7267 6.85C54.7267 5.61 55.0367 4.53 55.6567 3.61C56.2767 2.69 57.1467 1.99 58.2667 1.51C59.3867 1.01 60.6667 0.76 62.1067 0.76C64.2667 0.76 66.0167 1.29 67.3567 2.35C68.7167 3.39 69.4667 4.85 69.6067 6.73H64.9867C64.9467 6.01 64.6367 5.42 64.0567 4.96C63.4967 4.48 62.7467 4.24 61.8067 4.24C60.9867 4.24 60.3267 4.45 59.8267 4.87C59.3467 5.29 59.1067 5.9 59.1067 6.7C59.1067 7.26 59.2867 7.73 59.6467 8.11C60.0267 8.47 60.4867 8.77 61.0267 9.01C61.5867 9.23 62.3667 9.49 63.3667 9.79C64.7267 10.19 65.8367 10.59 66.6967 10.99C67.5567 11.39 68.2967 11.99 68.9167 12.79C69.5367 13.59 69.8467 14.64 69.8467 15.94C69.8467 17.06 69.5567 18.1 68.9767 19.06C68.3967 20.02 67.5467 20.79 66.4267 21.37C65.3067 21.93 63.9767 22.21 62.4367 22.21ZM80.718 22.21C79.258 22.21 77.938 21.96 76.758 21.46C75.598 20.96 74.678 20.24 73.998 19.3C73.318 18.36 72.968 17.25 72.948 15.97H77.448C77.508 16.83 77.808 17.51 78.348 18.01C78.908 18.51 79.668 18.76 80.628 18.76C81.608 18.76 82.378 18.53 82.938 18.07C83.498 17.59 83.778 16.97 83.778 16.21C83.778 15.59 83.588 15.08 83.208 14.68C82.828 14.28 82.348 13.97 81.768 13.75C81.208 13.51 80.428 13.25 79.428 12.97C78.068 12.57 76.958 12.18 76.098 11.8C75.258 11.4 74.528 10.81 73.908 10.03C73.308 9.23 73.008 8.17 73.008 6.85C73.008 5.61 73.318 4.53 73.938 3.61C74.558 2.69 75.428 1.99 76.548 1.51C77.668 1.01 78.948 0.76 80.388 0.76C82.548 0.76 84.298 1.29 85.638 2.35C86.998 3.39 87.748 4.85 87.888 6.73H83.268C83.228 6.01 82.918 5.42 82.338 4.96C81.778 4.48 81.028 4.24 80.088 4.24C79.268 4.24 78.608 4.45 78.108 4.87C77.628 5.29 77.388 5.9 77.388 6.7C77.388 7.26 77.568 7.73 77.928 8.11C78.308 8.47 78.768 8.77 79.308 9.01C79.868 9.23 80.648 9.49 81.648 9.79C83.008 10.19 84.118 10.59 84.978 10.99C85.838 11.39 86.578 11.99 87.198 12.79C87.818 13.59 88.128 14.64 88.128 15.94C88.128 17.06 87.838 18.1 87.258 19.06C86.678 20.02 85.828 20.79 84.708 21.37C83.588 21.93 82.258 22.21 80.718 22.21ZM111.758 18.01H103.418L102.038 22H97.6277L105.158 1.03H110.048L117.578 22H113.138L111.758 18.01ZM110.618 14.65L107.588 5.89L104.558 14.65H110.618ZM131.192 22L126.572 13.84H124.592V22H120.392V1.06H128.252C129.872 1.06 131.252 1.35 132.392 1.93C133.532 2.49 134.382 3.26 134.942 4.24C135.522 5.2 135.812 6.28 135.812 7.48C135.812 8.86 135.412 10.11 134.612 11.23C133.812 12.33 132.622 13.09 131.042 13.51L136.052 22H131.192ZM124.592 10.69H128.102C129.242 10.69 130.092 10.42 130.652 9.88C131.212 9.32 131.492 8.55 131.492 7.57C131.492 6.61 131.212 5.87 130.652 5.35C130.092 4.81 129.242 4.54 128.102 4.54H124.592V10.69ZM153.861 1.06V4.45H148.281V22H144.081V4.45H138.501V1.06H153.861Z" fill="url(#paint0_linear_484_629)"/>
<defs>
<linearGradient id="paint0_linear_484_629" x1="-21.625" y1="11.5" x2="181.551" y2="11.5" gradientUnits="userSpaceOnUse">
<stop stop-color="#5555FF"/>
<stop offset="0.495" stop-color="#C289FF"/>
<stop offset="1" stop-color="#5555FF"/>
</linearGradient>
</defs>
</svg>
